<svg width="18" height="20" viewBox="0 0 18 20" fill="none" xmlns="http://www.w3.org/2000/svg">
<path d="M17.8317 2.055C17.9322 1.9044 17.9899 1.72935 17.9987 1.54852C18.0075 1.36769 17.967 1.18786 17.8816 1.02823C17.7962 0.868605 17.669 0.735156 17.5137 0.642126C17.3584 0.549095 17.1808 0.499973 16.9997 0.5H0.999728C0.818843 0.500093 0.641371 0.549248 0.486214 0.642228C0.331056 0.735208 0.204024 0.868532 0.118646 1.028C0.0332687 1.18747 -0.00725658 1.36711 0.00138661 1.54778C0.0100298 1.72846 0.0675177 1.90341 0.167728 2.054L7.99973 13.803V17.5H4.99973V19.5H12.9997V17.5H9.99973V13.803L17.8317 2.055ZM15.1317 2.5L13.1317 5.5H4.86773L2.86773 2.5H15.1317Z" fill="#EB5757"/>
</svg>
