<svg width="24" height="24" viewBox="0 0 24 24" fill="none" xmlns="http://www.w3.org/2000/svg">
<g id="cached">
<path id="Subtract" fill-rule="evenodd" clip-rule="evenodd" d="M6 1C3.79086 1 2 2.79086 2 5V17C2 19.2091 3.79086 21 6 21H18C20.2091 21 22 19.2091 22 17V5C22 2.79086 20.2091 1 18 1H6ZM14.4138 11.3448L17.1724 8.5862L19.9311 11.3448H17.8621C17.8621 12.8081 17.2808 14.2114 16.2461 15.2461C15.2114 16.2808 13.8081 16.8621 12.3448 16.8621C11.2621 16.8621 10.2552 16.5448 9.40691 16.0069L10.4138 15C10.9862 15.3103 11.6552 15.4827 12.3448 15.4827C13.4423 15.4827 14.4948 15.0468 15.2708 14.2708C16.0468 13.4948 16.4828 12.4423 16.4828 11.3448H14.4138ZM9.41888 8.41886C8.64287 9.19487 8.20691 10.2474 8.20691 11.3448H10.2759L7.51726 14.1034L4.75864 11.3448H6.8276C6.8276 9.88155 7.40888 8.47822 8.44356 7.44354C9.47825 6.40885 10.8816 5.82758 12.3448 5.82758C13.4276 5.82758 14.4345 6.14482 15.2828 6.68275L14.2759 7.68964C13.7035 7.3793 13.0345 7.20689 12.3448 7.20689C11.2474 7.20689 10.1949 7.64285 9.41888 8.41886Z" fill="#BDBDBD"/>
</g>
</svg>
