<svg width="20" height="20" viewBox="0 0 20 20" fill="none" xmlns="http://www.w3.org/2000/svg">
<path id="Vector" d="M3.02509 18.776C2.99083 18.9227 2.99021 19.0752 3.02328 19.2221C3.05636 19.3691 3.12227 19.5066 3.21607 19.6245C3.30987 19.7423 3.42913 19.8374 3.56491 19.9026C3.70069 19.9678 3.84946 20.0015 4.00009 20.001C4.19762 20.001 4.39074 19.9426 4.55509 19.833L10.0001 16.203L15.4451 19.833C15.6154 19.9461 15.8163 20.0043 16.0207 19.9998C16.2251 19.9953 16.4233 19.9284 16.5885 19.8079C16.7537 19.6875 16.8781 19.5193 16.9449 19.3261C17.0116 19.1328 17.0177 18.9238 16.9621 18.727L15.1331 12.327L19.6691 8.24499C19.8144 8.11418 19.9181 7.94365 19.9675 7.7545C20.0169 7.56535 20.0098 7.36587 19.947 7.18073C19.8842 6.99559 19.7685 6.83291 19.6143 6.71281C19.46 6.59271 19.274 6.52046 19.0791 6.50499L13.3781 6.05099L10.9111 0.589991C10.8325 0.414103 10.7047 0.264713 10.5431 0.159849C10.3815 0.0549846 10.193 -0.000870684 10.0004 -0.000976412C9.80777 -0.00108214 9.61922 0.0545663 9.45751 0.159253C9.2958 0.263939 9.16785 0.41319 9.08909 0.588991L6.62209 6.05099L0.921087 6.50399C0.729543 6.51916 0.546425 6.5892 0.393642 6.70572C0.240859 6.82224 0.12488 6.98031 0.0595804 7.16102C-0.00571934 7.34173 -0.0175749 7.53742 0.0254322 7.72469C0.0684394 7.91196 0.164488 8.08288 0.302087 8.21699L4.51609 12.324L3.02509 18.776ZM10.0001 3.42999L12.0421 7.95099L12.6301 7.99799L16.6031 8.31299L13.3321 11.257L13.3311 11.259L12.8681 11.675L13.0391 12.272V12.275L14.2921 16.66L10.0001 13.799V3.42999Z" fill="#333333"/>
</svg>
