<svg width="20" height="18" viewBox="0 0 20 18" fill="none" xmlns="http://www.w3.org/2000/svg">
<path fill-rule="evenodd" clip-rule="evenodd" d="M19.8218 4.431C19.7298 4.29808 19.6069 4.18943 19.4638 4.11436C19.3206 4.0393 19.1614 4.00006 18.9998 4H5.33276L4.17876 1.23C4.02744 0.865226 3.77122 0.553593 3.44258 0.334615C3.11394 0.115638 2.72767 -0.00082104 2.33276 4.35724e-06H-0.000244141V2H2.33276L7.07676 13.385C7.15274 13.5672 7.28093 13.7228 7.44518 13.8322C7.60943 13.9416 7.80239 14 7.99976 14H15.9998C16.4168 14 16.7898 13.741 16.9368 13.352L19.9368 5.352C19.9935 5.20063 20.0126 5.03776 19.9926 4.87735C19.9726 4.71695 19.9139 4.56379 19.8218 4.431ZM8.49976 18C9.32818 18 9.99976 17.3284 9.99976 16.5C9.99976 15.6716 9.32818 15 8.49976 15C7.67133 15 6.99976 15.6716 6.99976 16.5C6.99976 17.3284 7.67133 18 8.49976 18ZM16.9998 16.5C16.9998 17.3284 16.3282 18 15.4998 18C14.6713 18 13.9998 17.3284 13.9998 16.5C13.9998 15.6716 14.6713 15 15.4998 15C16.3282 15 16.9998 15.6716 16.9998 16.5Z" fill="#27AE60"/>
</svg>
