<svg width="16" height="20" viewBox="0 0 16 20" fill="none" xmlns="http://www.w3.org/2000/svg">
<path d="M12.375 0H3.621C3.397 0 2.222 0.0650001 1.118 1.351C0.031 2.616 0 3.862 0 4V15C0 15.5304 0.210714 16.0391 0.585786 16.4142C0.960859 16.7893 1.46957 17 2 17H3L1 20H3.353L4.02 19H12.02L12.697 20H15L13 17H14C14.5304 17 15.0391 16.7893 15.4142 16.4142C15.7893 16.0391 16 15.5304 16 15V4C16.001 3.812 15.968 2.566 14.871 1.335C13.715 0.0370001 12.509 0 12.375 0ZM6 2H10V4H6V2ZM3.5 15C3.10204 14.9999 2.72044 14.8417 2.43913 14.5602C2.15783 14.2787 1.99987 13.897 2 13.499C2.00013 13.101 2.15835 12.7194 2.43984 12.4381C2.72133 12.1568 3.10304 11.9989 3.501 11.999C3.89896 11.9991 4.28056 12.1573 4.56187 12.4388C4.84317 12.7203 5.00113 13.102 5.001 13.5C5.00087 13.898 4.84265 14.2796 4.56116 14.5609C4.27967 14.8422 3.89796 15.0001 3.5 15ZM12.5 15C12.102 14.9999 11.7204 14.8417 11.4391 14.5602C11.1578 14.2787 10.9999 13.897 11 13.499C11.0001 13.101 11.1583 12.7194 11.4398 12.4381C11.7213 12.1568 12.103 11.9989 12.501 11.999C12.899 11.9991 13.2806 12.1573 13.5619 12.4388C13.8432 12.7203 14.0011 13.102 14.001 13.5C14.0009 13.898 13.8427 14.2796 13.5612 14.5609C13.2797 14.8422 12.898 15.0001 12.5 15ZM14 10H2V6H14V10Z" fill="#2F80ED"/>
</svg>
